<svg width="375" height="128" viewBox="0 0 375 128" fill="none" xmlns="http://www.w3.org/2000/svg">
<path d="M63.4491 44.57L71.2591 49.08L75.2191 46.8L63.4491 40L43.7891 51.36L47.7291 53.64L63.4491 44.57Z" fill="#414042"/>
<path d="M79.1614 49.0801L63.4514 58.1501L55.6414 53.6401L51.6914 55.9201L63.4514 62.7101L83.1214 51.3601L79.1614 49.0801Z" fill="#414042"/>
<path d="M46.95 64.3405L43 62.0605V75.6405L62.66 87.0005V82.4405L46.95 73.3605V64.3405Z" fill="#414042"/>
<path d="M43 57.4995L58.71 66.5695V75.5895L62.66 77.8795V64.2895L43 52.9395V57.4995Z" fill="#414042"/>
<path d="M76.0083 62.06V57.5L64.2383 64.29V87L68.1883 84.72V66.57L76.0083 62.06Z" fill="#414042"/>
<path d="M79.9506 55.2195V73.3595L72.1406 77.8795V82.4395L83.9106 75.6395V52.9395L79.9506 55.2195Z" fill="#414042"/>
<path d="M113.517 76V58.5455H125.074V61.5881H117.207V65.7472H124.307V68.7898H117.207V76H113.517ZM127.277 76V62.9091H130.797V65.1932H130.933C131.172 64.3807 131.572 63.767 132.135 63.3523C132.697 62.9318 133.345 62.7216 134.078 62.7216C134.26 62.7216 134.456 62.733 134.666 62.7557C134.876 62.7784 135.061 62.8097 135.22 62.8494V66.071C135.05 66.0199 134.814 65.9744 134.513 65.9347C134.212 65.8949 133.936 65.875 133.686 65.875C133.152 65.875 132.675 65.9915 132.254 66.2244C131.839 66.4517 131.51 66.7699 131.266 67.179C131.027 67.5881 130.908 68.0597 130.908 68.5938V76H127.277ZM140.455 76.2472C139.62 76.2472 138.876 76.1023 138.222 75.8125C137.569 75.517 137.052 75.0824 136.671 74.5085C136.296 73.929 136.109 73.2074 136.109 72.3438C136.109 71.6165 136.242 71.0057 136.509 70.5114C136.776 70.017 137.14 69.6193 137.6 69.3182C138.06 69.017 138.583 68.7898 139.168 68.6364C139.759 68.483 140.379 68.375 141.026 68.3125C141.788 68.233 142.401 68.1591 142.867 68.0909C143.333 68.017 143.671 67.9091 143.881 67.767C144.092 67.625 144.197 67.4148 144.197 67.1364V67.0852C144.197 66.5455 144.026 66.1278 143.685 65.8324C143.35 65.5369 142.873 65.3892 142.254 65.3892C141.6 65.3892 141.08 65.5341 140.694 65.8239C140.308 66.108 140.052 66.4659 139.927 66.8977L136.569 66.625C136.739 65.8295 137.075 65.142 137.575 64.5625C138.075 63.9773 138.719 63.5284 139.509 63.2159C140.305 62.8977 141.225 62.7386 142.271 62.7386C142.998 62.7386 143.694 62.8239 144.359 62.9943C145.029 63.1648 145.623 63.429 146.14 63.7869C146.663 64.1449 147.075 64.6051 147.376 65.1676C147.677 65.7244 147.827 66.392 147.827 67.1705V76H144.384V74.1847H144.282C144.072 74.5938 143.79 74.9545 143.438 75.267C143.086 75.5739 142.663 75.8153 142.168 75.9915C141.674 76.1619 141.103 76.2472 140.455 76.2472ZM141.495 73.7415C142.029 73.7415 142.501 73.6364 142.91 73.4261C143.319 73.2102 143.64 72.9205 143.873 72.5568C144.106 72.1932 144.222 71.7812 144.222 71.321V69.9318C144.109 70.0057 143.952 70.0739 143.754 70.1364C143.56 70.1932 143.342 70.2472 143.097 70.2983C142.853 70.3437 142.609 70.3864 142.364 70.4261C142.12 70.4602 141.898 70.4915 141.7 70.5199C141.273 70.5824 140.901 70.6818 140.583 70.8182C140.265 70.9545 140.018 71.1392 139.842 71.3722C139.665 71.5994 139.577 71.8835 139.577 72.2244C139.577 72.7188 139.756 73.0966 140.114 73.358C140.478 73.6136 140.938 73.7415 141.495 73.7415ZM150.644 76V62.9091H154.104V65.2188H154.258C154.531 64.4517 154.985 63.8466 155.621 63.4034C156.258 62.9602 157.019 62.7386 157.906 62.7386C158.803 62.7386 159.567 62.9631 160.198 63.4119C160.829 63.8551 161.249 64.4574 161.46 65.2188H161.596C161.863 64.4688 162.346 63.8693 163.045 63.4205C163.749 62.9659 164.582 62.7386 165.542 62.7386C166.763 62.7386 167.755 63.1278 168.516 63.9062C169.283 64.679 169.667 65.7756 169.667 67.196V76H166.045V67.9119C166.045 67.1847 165.852 66.6392 165.465 66.2756C165.079 65.9119 164.596 65.7301 164.016 65.7301C163.357 65.7301 162.843 65.9403 162.474 66.3608C162.104 66.7756 161.92 67.3239 161.92 68.0057V76H158.4V67.8352C158.4 67.1932 158.215 66.6818 157.846 66.3011C157.482 65.9205 157.002 65.7301 156.406 65.7301C156.002 65.7301 155.638 65.8324 155.315 66.0369C154.996 66.2358 154.744 66.517 154.556 66.8807C154.369 67.2386 154.275 67.6591 154.275 68.142V76H150.644ZM178.501 76.2557C177.154 76.2557 175.995 75.983 175.023 75.4375C174.058 74.8864 173.313 74.108 172.79 73.1023C172.268 72.0909 172.006 70.8949 172.006 69.5142C172.006 68.1676 172.268 66.9858 172.79 65.9688C173.313 64.9517 174.049 64.1591 174.998 63.5909C175.952 63.0227 177.072 62.7386 178.356 62.7386C179.219 62.7386 180.023 62.8778 180.768 63.1562C181.518 63.429 182.171 63.8409 182.728 64.392C183.29 64.9432 183.728 65.6364 184.04 66.4716C184.353 67.3011 184.509 68.2727 184.509 69.3864V70.3835H173.455V68.1335H181.092C181.092 67.6108 180.978 67.1477 180.751 66.7443C180.523 66.3409 180.208 66.0256 179.805 65.7983C179.407 65.5653 178.944 65.4489 178.415 65.4489C177.864 65.4489 177.376 65.5767 176.95 65.8324C176.529 66.0824 176.2 66.4205 175.961 66.8466C175.722 67.267 175.6 67.7358 175.594 68.2528V70.392C175.594 71.0398 175.714 71.5994 175.952 72.071C176.197 72.5426 176.54 72.9062 176.984 73.1619C177.427 73.4176 177.952 73.5455 178.56 73.5455C178.964 73.5455 179.333 73.4886 179.668 73.375C180.004 73.2614 180.29 73.0909 180.529 72.8636C180.768 72.6364 180.95 72.358 181.075 72.0284L184.433 72.25C184.262 73.0568 183.913 73.7614 183.384 74.3636C182.862 74.9602 182.185 75.4261 181.356 75.7614C180.532 76.0909 179.58 76.2557 178.501 76.2557ZM197.771 66.642L194.447 66.8466C194.39 66.5625 194.268 66.3068 194.08 66.0795C193.893 65.8466 193.646 65.6619 193.339 65.5256C193.038 65.3835 192.677 65.3125 192.256 65.3125C191.694 65.3125 191.219 65.4318 190.833 65.6705C190.447 65.9034 190.254 66.2159 190.254 66.608C190.254 66.9205 190.379 67.1847 190.629 67.4006C190.879 67.6165 191.308 67.7898 191.915 67.9205L194.285 68.3977C195.558 68.6591 196.506 69.0795 197.131 69.6591C197.756 70.2386 198.069 71 198.069 71.9432C198.069 72.8011 197.816 73.554 197.31 74.2017C196.81 74.8494 196.123 75.3551 195.248 75.7188C194.379 76.0767 193.376 76.2557 192.239 76.2557C190.506 76.2557 189.126 75.8949 188.097 75.1733C187.075 74.446 186.475 73.4574 186.299 72.2074L189.87 72.0199C189.978 72.5483 190.239 72.9517 190.654 73.2301C191.069 73.5028 191.6 73.6392 192.248 73.6392C192.884 73.6392 193.396 73.517 193.782 73.2727C194.174 73.0227 194.373 72.7017 194.379 72.3097C194.373 71.9801 194.234 71.7102 193.961 71.5C193.688 71.2841 193.268 71.1193 192.7 71.0057L190.433 70.554C189.154 70.2983 188.202 69.8551 187.577 69.2244C186.958 68.5937 186.648 67.7898 186.648 66.8125C186.648 65.9716 186.876 65.2472 187.33 64.6392C187.79 64.0312 188.435 63.5625 189.265 63.233C190.1 62.9034 191.077 62.7386 192.197 62.7386C193.85 62.7386 195.151 63.0881 196.1 63.7869C197.055 64.4858 197.612 65.4375 197.771 66.642ZM209.643 76.2472C208.808 76.2472 208.063 76.1023 207.41 75.8125C206.756 75.517 206.239 75.0824 205.859 74.5085C205.484 73.929 205.296 73.2074 205.296 72.3438C205.296 71.6165 205.43 71.0057 205.697 70.5114C205.964 70.017 206.327 69.6193 206.788 69.3182C207.248 69.017 207.771 68.7898 208.356 68.6364C208.947 68.483 209.566 68.375 210.214 68.3125C210.975 68.233 211.589 68.1591 212.055 68.0909C212.521 68.017 212.859 67.9091 213.069 67.767C213.279 67.625 213.384 67.4148 213.384 67.1364V67.0852C213.384 66.5455 213.214 66.1278 212.873 65.8324C212.538 65.5369 212.06 65.3892 211.441 65.3892C210.788 65.3892 210.268 65.5341 209.881 65.8239C209.495 66.108 209.239 66.4659 209.114 66.8977L205.756 66.625C205.927 65.8295 206.262 65.142 206.762 64.5625C207.262 63.9773 207.907 63.5284 208.697 63.2159C209.492 62.8977 210.413 62.7386 211.458 62.7386C212.185 62.7386 212.881 62.8239 213.546 62.9943C214.217 63.1648 214.81 63.429 215.327 63.7869C215.85 64.1449 216.262 64.6051 216.563 65.1676C216.864 65.7244 217.015 66.392 217.015 67.1705V76H213.572V74.1847H213.469C213.259 74.5938 212.978 74.9545 212.626 75.267C212.273 75.5739 211.85 75.8153 211.356 75.9915C210.862 76.1619 210.29 76.2472 209.643 76.2472ZM210.683 73.7415C211.217 73.7415 211.688 73.6364 212.097 73.4261C212.506 73.2102 212.827 72.9205 213.06 72.5568C213.293 72.1932 213.41 71.7812 213.41 71.321V69.9318C213.296 70.0057 213.14 70.0739 212.941 70.1364C212.748 70.1932 212.529 70.2472 212.285 70.2983C212.04 70.3437 211.796 70.3864 211.552 70.4261C211.308 70.4602 211.086 70.4915 210.887 70.5199C210.461 70.5824 210.089 70.6818 209.771 70.8182C209.452 70.9545 209.205 71.1392 209.029 71.3722C208.853 71.5994 208.765 71.8835 208.765 72.2244C208.765 72.7188 208.944 73.0966 209.302 73.358C209.665 73.6136 210.126 73.7415 210.683 73.7415ZM223.462 68.4318V76H219.832V62.9091H223.292V65.2188H223.445C223.735 64.4574 224.221 63.8551 224.903 63.4119C225.585 62.9631 226.411 62.7386 227.383 62.7386C228.292 62.7386 229.085 62.9375 229.761 63.3352C230.437 63.733 230.962 64.3011 231.337 65.0398C231.712 65.7727 231.9 66.6477 231.9 67.6648V76H228.269V68.3125C228.275 67.5114 228.07 66.8864 227.656 66.4375C227.241 65.983 226.67 65.7557 225.942 65.7557C225.454 65.7557 225.022 65.8608 224.647 66.071C224.278 66.2812 223.988 66.5881 223.778 66.9915C223.573 67.3892 223.468 67.8693 223.462 68.4318ZM239.585 76.2131C238.591 76.2131 237.69 75.9574 236.884 75.446C236.082 74.929 235.446 74.1705 234.974 73.1705C234.509 72.1648 234.276 70.9318 234.276 69.4716C234.276 67.9716 234.517 66.7244 235 65.7301C235.483 64.7301 236.125 63.983 236.926 63.4886C237.733 62.9886 238.616 62.7386 239.577 62.7386C240.31 62.7386 240.92 62.8636 241.409 63.1136C241.903 63.358 242.301 63.6648 242.602 64.0341C242.909 64.3977 243.142 64.7557 243.301 65.108H243.412V58.5455H247.034V76H243.455V73.9034H243.301C243.131 74.267 242.889 74.6278 242.577 74.9858C242.27 75.3381 241.869 75.6307 241.375 75.8636C240.886 76.0966 240.29 76.2131 239.585 76.2131ZM240.736 73.3239C241.321 73.3239 241.815 73.1648 242.219 72.8466C242.628 72.5227 242.94 72.071 243.156 71.4915C243.378 70.9119 243.489 70.233 243.489 69.4545C243.489 68.6761 243.381 68 243.165 67.4261C242.949 66.8523 242.636 66.4091 242.227 66.0966C241.818 65.7841 241.321 65.6278 240.736 65.6278C240.139 65.6278 239.636 65.7898 239.227 66.1136C238.818 66.4375 238.509 66.8864 238.298 67.4602C238.088 68.0341 237.983 68.6989 237.983 69.4545C237.983 70.2159 238.088 70.8892 238.298 71.4744C238.514 72.054 238.824 72.5085 239.227 72.8381C239.636 73.1619 240.139 73.3239 240.736 73.3239ZM255.642 76V58.5455H259.273V65.108H259.384C259.543 64.7557 259.773 64.3977 260.074 64.0341C260.381 63.6648 260.778 63.358 261.267 63.1136C261.761 62.8636 262.375 62.7386 263.108 62.7386C264.063 62.7386 264.943 62.9886 265.75 63.4886C266.557 63.983 267.202 64.7301 267.685 65.7301C268.168 66.7244 268.409 67.9716 268.409 69.4716C268.409 70.9318 268.173 72.1648 267.702 73.1705C267.236 74.1705 266.599 74.929 265.793 75.446C264.991 75.9574 264.094 76.2131 263.099 76.2131C262.395 76.2131 261.795 76.0966 261.301 75.8636C260.812 75.6307 260.412 75.3381 260.099 74.9858C259.787 74.6278 259.548 74.267 259.384 73.9034H259.222V76H255.642ZM259.196 69.4545C259.196 70.233 259.304 70.9119 259.52 71.4915C259.736 72.071 260.048 72.5227 260.457 72.8466C260.866 73.1648 261.364 73.3239 261.949 73.3239C262.54 73.3239 263.04 73.1619 263.449 72.8381C263.858 72.5085 264.168 72.054 264.378 71.4744C264.594 70.8892 264.702 70.2159 264.702 69.4545C264.702 68.6989 264.597 68.0341 264.386 67.4602C264.176 66.8864 263.866 66.4375 263.457 66.1136C263.048 65.7898 262.545 65.6278 261.949 65.6278C261.358 65.6278 260.858 65.7841 260.449 66.0966C260.045 66.4091 259.736 66.8523 259.52 67.4261C259.304 68 259.196 68.6761 259.196 69.4545ZM274.565 76.2472C273.729 76.2472 272.985 76.1023 272.332 75.8125C271.678 75.517 271.161 75.0824 270.781 74.5085C270.406 73.929 270.218 73.2074 270.218 72.3438C270.218 71.6165 270.352 71.0057 270.619 70.5114C270.886 70.017 271.249 69.6193 271.71 69.3182C272.17 69.017 272.692 68.7898 273.278 68.6364C273.869 68.483 274.488 68.375 275.136 68.3125C275.897 68.233 276.511 68.1591 276.977 68.0909C277.442 68.017 277.781 67.9091 277.991 67.767C278.201 67.625 278.306 67.4148 278.306 67.1364V67.0852C278.306 66.5455 278.136 66.1278 277.795 65.8324C277.46 65.5369 276.982 65.3892 276.363 65.3892C275.71 65.3892 275.19 65.5341 274.803 65.8239C274.417 66.108 274.161 66.4659 274.036 66.8977L270.678 66.625C270.849 65.8295 271.184 65.142 271.684 64.5625C272.184 63.9773 272.829 63.5284 273.619 63.2159C274.414 62.8977 275.335 62.7386 276.38 62.7386C277.107 62.7386 277.803 62.8239 278.468 62.9943C279.138 63.1648 279.732 63.429 280.249 63.7869C280.772 64.1449 281.184 64.6051 281.485 65.1676C281.786 65.7244 281.937 66.392 281.937 67.1705V76H278.494V74.1847H278.391C278.181 74.5938 277.9 74.9545 277.548 75.267C277.195 75.5739 276.772 75.8153 276.278 75.9915C275.783 76.1619 275.212 76.2472 274.565 76.2472ZM275.604 73.7415C276.138 73.7415 276.61 73.6364 277.019 73.4261C277.428 73.2102 277.749 72.9205 277.982 72.5568C278.215 72.1932 278.332 71.7812 278.332 71.321V69.9318C278.218 70.0057 278.062 70.0739 277.863 70.1364C277.67 70.1932 277.451 70.2472 277.207 70.2983C276.962 70.3437 276.718 70.3864 276.474 70.4261C276.229 70.4602 276.008 70.4915 275.809 70.5199C275.383 70.5824 275.011 70.6818 274.692 70.8182C274.374 70.9545 274.127 71.1392 273.951 71.3722C273.775 71.5994 273.687 71.8835 273.687 72.2244C273.687 72.7188 273.866 73.0966 274.224 73.358C274.587 73.6136 275.048 73.7415 275.604 73.7415ZM290.651 81.1818C289.475 81.1818 288.467 81.0199 287.626 80.696C286.79 80.3778 286.126 79.9432 285.631 79.392C285.137 78.8409 284.816 78.2216 284.668 77.5341L288.026 77.0824C288.129 77.3438 288.29 77.5881 288.512 77.8153C288.734 78.0426 289.026 78.2244 289.39 78.3608C289.759 78.5028 290.208 78.5739 290.737 78.5739C291.526 78.5739 292.177 78.3807 292.688 77.9943C293.205 77.6136 293.464 76.9744 293.464 76.0767V73.6818H293.31C293.151 74.0455 292.913 74.3892 292.594 74.7131C292.276 75.0369 291.867 75.3011 291.367 75.5057C290.867 75.7102 290.271 75.8125 289.577 75.8125C288.594 75.8125 287.7 75.5852 286.893 75.1307C286.092 74.6705 285.452 73.9687 284.975 73.0256C284.504 72.0767 284.268 70.8778 284.268 69.429C284.268 67.946 284.509 66.7074 284.992 65.7131C285.475 64.7187 286.117 63.9744 286.918 63.4801C287.725 62.9858 288.609 62.7386 289.569 62.7386C290.302 62.7386 290.915 62.8636 291.41 63.1136C291.904 63.358 292.302 63.6648 292.603 64.0341C292.91 64.3977 293.146 64.7557 293.31 65.108H293.447V62.9091H297.052V76.1278C297.052 77.2415 296.779 78.1733 296.234 78.9233C295.688 79.6733 294.933 80.2358 293.967 80.6108C293.006 80.9915 291.901 81.1818 290.651 81.1818ZM290.728 73.0852C291.313 73.0852 291.808 72.9403 292.211 72.6506C292.62 72.3551 292.933 71.9347 293.148 71.3892C293.37 70.8381 293.481 70.179 293.481 69.4119C293.481 68.6449 293.373 67.9801 293.157 67.4176C292.941 66.8494 292.629 66.4091 292.219 66.0966C291.81 65.7841 291.313 65.6278 290.728 65.6278C290.131 65.6278 289.629 65.7898 289.219 66.1136C288.81 66.4318 288.501 66.875 288.29 67.4432C288.08 68.0114 287.975 68.6676 287.975 69.4119C287.975 70.1676 288.08 70.821 288.29 71.3722C288.506 71.9176 288.816 72.3409 289.219 72.642C289.629 72.9375 290.131 73.0852 290.728 73.0852ZM308.336 70.4261V62.9091H311.967V76H308.481V73.6222H308.344C308.049 74.3892 307.558 75.0057 306.87 75.4716C306.188 75.9375 305.356 76.1705 304.373 76.1705C303.498 76.1705 302.728 75.9716 302.063 75.5739C301.398 75.1761 300.879 74.6108 300.504 73.8778C300.134 73.1449 299.947 72.267 299.941 71.2443V62.9091H303.572V70.5966C303.577 71.3693 303.785 71.9801 304.194 72.429C304.603 72.8778 305.151 73.1023 305.839 73.1023C306.276 73.1023 306.685 73.0028 307.066 72.804C307.447 72.5994 307.754 72.2983 307.987 71.9006C308.225 71.5028 308.342 71.0114 308.336 70.4261ZM320.837 76.2557C319.49 76.2557 318.331 75.983 317.359 75.4375C316.393 74.8864 315.649 74.108 315.126 73.1023C314.604 72.0909 314.342 70.8949 314.342 69.5142C314.342 68.1676 314.604 66.9858 315.126 65.9688C315.649 64.9517 316.385 64.1591 317.334 63.5909C318.288 63.0227 319.408 62.7386 320.692 62.7386C321.555 62.7386 322.359 62.8778 323.104 63.1562C323.854 63.429 324.507 63.8409 325.064 64.392C325.626 64.9432 326.064 65.6364 326.376 66.4716C326.689 67.3011 326.845 68.2727 326.845 69.3864V70.3835H315.791V68.1335H323.428C323.428 67.6108 323.314 67.1477 323.087 66.7443C322.859 66.3409 322.544 66.0256 322.141 65.7983C321.743 65.5653 321.28 65.4489 320.751 65.4489C320.2 65.4489 319.712 65.5767 319.286 65.8324C318.865 66.0824 318.536 66.4205 318.297 66.8466C318.058 67.267 317.936 67.7358 317.93 68.2528V70.392C317.93 71.0398 318.05 71.5994 318.288 72.071C318.533 72.5426 318.876 72.9062 319.32 73.1619C319.763 73.4176 320.288 73.5455 320.896 73.5455C321.3 73.5455 321.669 73.4886 322.004 73.375C322.339 73.2614 322.626 73.0909 322.865 72.8636C323.104 72.6364 323.286 72.358 323.411 72.0284L326.768 72.25C326.598 73.0568 326.249 73.7614 325.72 74.3636C325.197 74.9602 324.521 75.4261 323.692 75.7614C322.868 76.0909 321.916 76.2557 320.837 76.2557ZM336.178 62.9091V65.6364H328.294V62.9091H336.178ZM330.084 59.7727H333.714V71.9773C333.714 72.3125 333.766 72.5739 333.868 72.7614C333.97 72.9432 334.112 73.071 334.294 73.1449C334.482 73.2187 334.697 73.2557 334.942 73.2557C335.112 73.2557 335.283 73.2415 335.453 73.2131C335.624 73.179 335.754 73.1534 335.845 73.1364L336.416 75.8381C336.234 75.8949 335.979 75.9602 335.649 76.0341C335.32 76.1136 334.919 76.1619 334.447 76.179C333.572 76.2131 332.805 76.0966 332.146 75.8295C331.493 75.5625 330.984 75.1477 330.621 74.5852C330.257 74.0227 330.078 73.3125 330.084 72.4545V59.7727ZM345.506 62.9091V65.6364H337.622V62.9091H345.506ZM339.412 59.7727H343.043V71.9773C343.043 72.3125 343.094 72.5739 343.196 72.7614C343.298 72.9432 343.44 73.071 343.622 73.1449C343.81 73.2187 344.026 73.2557 344.27 73.2557C344.44 73.2557 344.611 73.2415 344.781 73.2131C344.952 73.179 345.082 73.1534 345.173 73.1364L345.744 75.8381C345.563 75.8949 345.307 75.9602 344.977 76.0341C344.648 76.1136 344.247 76.1619 343.776 76.179C342.901 76.2131 342.134 76.0966 341.474 75.8295C340.821 75.5625 340.313 75.1477 339.949 74.5852C339.585 74.0227 339.406 73.3125 339.412 72.4545V59.7727ZM353.696 76.2557C352.349 76.2557 351.19 75.983 350.219 75.4375C349.253 74.8864 348.509 74.108 347.986 73.1023C347.463 72.0909 347.202 70.8949 347.202 69.5142C347.202 68.1676 347.463 66.9858 347.986 65.9688C348.509 64.9517 349.244 64.1591 350.193 63.5909C351.148 63.0227 352.267 62.7386 353.551 62.7386C354.415 62.7386 355.219 62.8778 355.963 63.1562C356.713 63.429 357.366 63.8409 357.923 64.392C358.486 64.9432 358.923 65.6364 359.236 66.4716C359.548 67.3011 359.705 68.2727 359.705 69.3864V70.3835H348.651V68.1335H356.287C356.287 67.6108 356.173 67.1477 355.946 66.7443C355.719 66.3409 355.403 66.0256 355 65.7983C354.602 65.5653 354.139 65.4489 353.611 65.4489C353.06 65.4489 352.571 65.5767 352.145 65.8324C351.724 66.0824 351.395 66.4205 351.156 66.8466C350.918 67.267 350.795 67.7358 350.79 68.2528V70.392C350.79 71.0398 350.909 71.5994 351.148 72.071C351.392 72.5426 351.736 72.9062 352.179 73.1619C352.622 73.4176 353.148 73.5455 353.756 73.5455C354.159 73.5455 354.528 73.4886 354.864 73.375C355.199 73.2614 355.486 73.0909 355.724 72.8636C355.963 72.6364 356.145 72.358 356.27 72.0284L359.628 72.25C359.457 73.0568 359.108 73.7614 358.58 74.3636C358.057 74.9602 357.381 75.4261 356.551 75.7614C355.727 76.0909 354.776 76.2557 353.696 76.2557ZM372.966 66.642L369.642 66.8466C369.585 66.5625 369.463 66.3068 369.276 66.0795C369.088 65.8466 368.841 65.6619 368.534 65.5256C368.233 65.3835 367.872 65.3125 367.452 65.3125C366.889 65.3125 366.415 65.4318 366.028 65.6705C365.642 65.9034 365.449 66.2159 365.449 66.608C365.449 66.9205 365.574 67.1847 365.824 67.4006C366.074 67.6165 366.503 67.7898 367.111 67.9205L369.48 68.3977C370.753 68.6591 371.702 69.0795 372.327 69.6591C372.952 70.2386 373.264 71 373.264 71.9432C373.264 72.8011 373.011 73.554 372.506 74.2017C372.006 74.8494 371.318 75.3551 370.443 75.7188C369.574 76.0767 368.571 76.2557 367.435 76.2557C365.702 76.2557 364.321 75.8949 363.293 75.1733C362.27 74.446 361.67 73.4574 361.494 72.2074L365.065 72.0199C365.173 72.5483 365.435 72.9517 365.849 73.2301C366.264 73.5028 366.795 73.6392 367.443 73.6392C368.08 73.6392 368.591 73.517 368.977 73.2727C369.369 73.0227 369.568 72.7017 369.574 72.3097C369.568 71.9801 369.429 71.7102 369.156 71.5C368.884 71.2841 368.463 71.1193 367.895 71.0057L365.628 70.554C364.349 70.2983 363.398 69.8551 362.773 69.2244C362.153 68.5937 361.844 67.7898 361.844 66.8125C361.844 65.9716 362.071 65.2472 362.526 64.6392C362.986 64.0312 363.631 63.5625 364.46 63.233C365.295 62.9034 366.273 62.7386 367.392 62.7386C369.045 62.7386 370.347 63.0881 371.295 63.7869C372.25 64.4858 372.807 65.4375 372.966 66.642Z" fill="black"/>
</svg>
