<svg width="283" height="98" viewBox="0 0 283 98" fill="none" xmlns="http://www.w3.org/2000/svg">
<path d="M30.7055 45.6582C30.385 45.6602 30.0783 45.7913 29.8517 46.0229C29.6251 46.2546 29.4969 46.5683 29.495 46.8959V49.188C29.4711 49.4985 29.3335 49.7883 29.1098 49.9998C28.8861 50.2112 28.5927 50.3285 28.2881 50.3285C27.9835 50.3285 27.6901 50.2112 27.4664 49.9998C27.2427 49.7883 27.1052 49.4985 27.0813 49.188V49.3408C27.0813 49.0126 26.9537 48.6977 26.7267 48.4656C26.4997 48.2335 26.1918 48.1031 25.8707 48.1031C25.5496 48.1031 25.2418 48.2335 25.0147 48.4656C24.7877 48.6977 24.6602 49.0126 24.6602 49.3408V69.6714C24.6602 69.9997 24.7877 70.3145 25.0147 70.5466C25.2418 70.7788 25.5496 70.9091 25.8707 70.9091C26.1918 70.9091 26.4997 70.7788 26.7267 70.5466C26.9537 70.3145 27.0813 69.9997 27.0813 69.6714V63.223C27.0681 63.0529 27.0897 62.8818 27.1444 62.7204C27.1991 62.5591 27.2858 62.4111 27.3991 62.2857C27.5125 62.1604 27.65 62.0604 27.8029 61.9919C27.956 61.9235 28.1211 61.8882 28.2881 61.8882C28.4551 61.8882 28.6203 61.9235 28.7733 61.9919C28.9262 62.0604 29.0637 62.1604 29.1771 62.2857C29.2904 62.4111 29.3772 62.5591 29.4319 62.7204C29.4866 62.8818 29.508 63.0529 29.495 63.223V67.196C29.495 67.5243 29.6225 67.839 29.8495 68.0711C30.0766 68.3033 30.3844 68.4337 30.7055 68.4337C31.0266 68.4337 31.3345 68.3033 31.5615 68.0711C31.7886 67.839 31.9161 67.5243 31.9161 67.196V46.8806C31.9122 46.555 31.783 46.2441 31.5563 46.0153C31.3297 45.7865 31.024 45.6582 30.7055 45.6582ZM28.2919 60.2586C28.1326 60.2597 27.9747 60.2284 27.8274 60.1665C27.6801 60.1047 27.5462 60.0135 27.4336 59.8984C27.321 59.7833 27.2319 59.6464 27.1714 59.4958C27.111 59.3452 27.0803 59.1837 27.0813 59.0209V53.4436C27.0681 53.2734 27.0897 53.1022 27.1444 52.9409C27.1991 52.7796 27.2858 52.6317 27.3991 52.5063C27.5125 52.3809 27.65 52.2809 27.8029 52.2124C27.956 52.1441 28.1211 52.1087 28.2881 52.1087C28.4551 52.1087 28.6203 52.1441 28.7733 52.2124C28.9262 52.2809 29.0637 52.3809 29.1771 52.5063C29.2904 52.6317 29.3772 52.7796 29.4319 52.9409C29.4866 53.1022 29.508 53.2734 29.495 53.4436V59.0209C29.4959 59.1831 29.4656 59.3439 29.4055 59.494C29.3455 59.6441 29.257 59.7807 29.1452 59.8957C29.0334 60.0107 28.9004 60.102 28.7541 60.1643C28.6076 60.2266 28.4505 60.2586 28.2919 60.2586Z" fill="#1A1A1B"/>
<path d="M40.3736 35.4199C40.2157 35.4199 40.0593 35.4518 39.9132 35.5136C39.7673 35.5754 39.6347 35.666 39.5229 35.7803C39.4112 35.8945 39.3226 36.0301 39.2621 36.1793C39.2017 36.3285 39.1705 36.4885 39.1705 36.65V52.8702C39.1705 53.1985 39.043 53.5133 38.816 53.7454C38.5889 53.9776 38.2811 54.1079 37.96 54.1079C37.6389 54.1079 37.331 53.9776 37.104 53.7454C36.8769 53.5133 36.7495 53.1985 36.7495 52.8702V40.4396C36.7625 40.2694 36.741 40.0983 36.6863 39.937C36.6316 39.7756 36.5449 39.6276 36.4316 39.5023C36.3182 39.3769 36.1807 39.2769 36.0277 39.2084C35.8748 39.14 35.7096 39.1047 35.5426 39.1047C35.3756 39.1047 35.2105 39.14 35.0574 39.2084C34.9045 39.2769 34.767 39.3769 34.6536 39.5023C34.5402 39.6276 34.4535 39.7756 34.3988 39.937C34.3441 40.0983 34.3226 40.2694 34.3358 40.4396V60.7702C34.3226 60.9404 34.3441 61.1115 34.3988 61.2728C34.4535 61.4342 34.5402 61.5821 34.6536 61.7075C34.767 61.8328 34.9045 61.9329 35.0574 62.0014C35.2105 62.0698 35.3756 62.1051 35.5426 62.1051C35.7096 62.1051 35.8748 62.0698 36.0277 62.0014C36.1807 61.9329 36.3182 61.8328 36.4316 61.7075C36.5449 61.5821 36.6316 61.4342 36.6863 61.2728C36.741 61.1115 36.7625 60.9404 36.7495 60.7702V57.0647C36.7495 56.7364 36.8769 56.4216 37.104 56.1895C37.331 55.9574 37.6389 55.827 37.96 55.827C38.2811 55.827 38.5889 55.9574 38.816 56.1895C39.043 56.4216 39.1705 56.7364 39.1705 57.0647V56.9501C39.1944 57.2606 39.332 57.5504 39.5557 57.7618C39.7794 57.9732 40.0728 58.0907 40.3774 58.0907C40.682 58.0907 40.9755 57.9732 41.1991 57.7618C41.4228 57.5504 41.5603 57.2606 41.5842 56.9501V36.6118C41.5745 36.2909 41.4424 35.9867 41.2162 35.764C40.99 35.5413 40.6876 35.4178 40.3736 35.4199Z" fill="#1A1A1B"/>
<path d="M50.0452 27.5049C49.7241 27.5049 49.4162 27.6353 49.1892 27.8674C48.9622 28.0995 48.8346 28.4143 48.8346 28.7426V32.1654C48.8346 32.4936 48.7071 32.8085 48.4801 33.0406C48.253 33.2727 47.9451 33.4031 47.6241 33.4031C47.303 33.4031 46.9951 33.2727 46.7681 33.0406C46.541 32.8085 46.4135 32.4936 46.4135 32.1654V31.5236C46.3896 31.2131 46.252 30.9233 46.0283 30.7119C45.8047 30.5005 45.5112 30.3831 45.2067 30.3831C44.9021 30.3831 44.6086 30.5005 44.385 30.7119C44.1612 30.9233 44.0237 31.2131 43.9998 31.5236V51.8542C43.9867 52.0245 44.0082 52.1955 44.0629 52.3569C44.1176 52.5182 44.2043 52.6662 44.3177 52.7915C44.431 52.9169 44.5685 53.0169 44.7215 53.0854C44.8745 53.1538 45.0396 53.1891 45.2067 53.1891C45.3737 53.1891 45.5388 53.1538 45.6918 53.0854C45.8448 53.0169 45.9823 52.9169 46.0956 52.7915C46.209 52.6662 46.2957 52.5182 46.3504 52.3569C46.4051 52.1955 46.4266 52.0245 46.4135 51.8542V36.3904C46.4135 36.0621 46.541 35.7474 46.7681 35.5153C46.9951 35.2832 47.303 35.1527 47.6241 35.1527C47.9451 35.1527 48.253 35.2832 48.4801 35.5153C48.7071 35.7474 48.8346 36.0621 48.8346 36.3904V49.0732C48.8346 49.4014 48.9622 49.7163 49.1892 49.9484C49.4162 50.1805 49.7241 50.3109 50.0452 50.3109C50.3662 50.3109 50.6742 50.1805 50.9012 49.9484C51.1282 49.7163 51.2558 49.4014 51.2558 49.0732V28.7426C51.2538 28.415 51.1257 28.1013 50.899 27.8696C50.6725 27.6379 50.3656 27.5069 50.0452 27.5049Z" fill="#1A1A1B"/>
<path d="M69.3829 47.9428C69.0632 47.9448 68.7571 48.0761 68.5318 48.308C68.3063 48.5398 68.1798 48.8535 68.1799 49.1805V50.9454C68.1799 51.2737 68.0523 51.5884 67.8253 51.8205C67.5983 52.0527 67.2903 52.1831 66.9693 52.1831C66.6482 52.1831 66.3403 52.0527 66.1132 51.8205C65.8862 51.5884 65.7587 51.2737 65.7587 50.9454V45.9716C65.7587 45.6434 65.6312 45.3285 65.4042 45.0964C65.1771 44.8643 64.8692 44.7339 64.5482 44.7339C64.2271 44.7339 63.9192 44.8643 63.6922 45.0964C63.4651 45.3285 63.3376 45.6434 63.3376 45.9716V56.5991C63.3137 56.9096 63.1761 57.1995 62.9525 57.4108C62.7287 57.6222 62.4353 57.7396 62.1307 57.7396C61.8261 57.7396 61.5327 57.6222 61.309 57.4108C61.0853 57.1995 60.9478 56.9096 60.9239 56.5991V40.3407C60.9239 40.0125 60.7964 39.6977 60.5693 39.4656C60.3423 39.2334 60.0344 39.103 59.7133 39.103C59.3923 39.103 59.0843 39.2334 58.8573 39.4656C58.6303 39.6977 58.5027 40.0125 58.5027 40.3407V51.6865C58.5159 51.8567 58.4943 52.0278 58.4396 52.1891C58.3849 52.3504 58.2983 52.4984 58.1849 52.6238C58.0715 52.7491 57.934 52.8492 57.7811 52.9176C57.6281 52.9861 57.4629 53.0214 57.2959 53.0214C57.1289 53.0214 56.9637 52.9861 56.8108 52.9176C56.6578 52.8492 56.5203 52.7491 56.4069 52.6238C56.2936 52.4984 56.2069 52.3504 56.1522 52.1891C56.0975 52.0278 56.076 51.8567 56.0891 51.6865V35.5121C56.0891 35.1839 55.9616 34.8691 55.7345 34.6369C55.5075 34.4048 55.1996 34.2744 54.8785 34.2744C54.5574 34.2744 54.2496 34.4048 54.0225 34.6369C53.7955 34.8691 53.668 35.1839 53.668 35.5121V55.8427C53.668 56.171 53.7955 56.4858 54.0225 56.7179C54.2496 56.95 54.5574 57.0804 54.8785 57.0804C55.1996 57.0804 55.5075 56.95 55.7345 56.7179C55.9616 56.4858 56.0891 56.171 56.0891 55.8427V55.9115C56.113 55.601 56.2505 55.3111 56.4742 55.0997C56.6979 54.8884 56.9913 54.771 57.2959 54.771C57.6005 54.771 57.8939 54.8884 58.1176 55.0997C58.3413 55.3111 58.4788 55.601 58.5027 55.9115V60.6713C58.5027 60.9996 58.6303 61.3144 58.8573 61.5465C59.0843 61.7786 59.3923 61.9091 59.7133 61.9091C60.0344 61.9091 60.3423 61.7786 60.5693 61.5465C60.7964 61.3144 60.9239 60.9996 60.9239 60.6713V60.8241C60.9108 60.6539 60.9322 60.4828 60.9869 60.3215C61.0416 60.1602 61.1285 60.0122 61.2417 59.8868C61.3551 59.7615 61.4926 59.6615 61.6456 59.593C61.7985 59.5246 61.9637 59.4892 62.1307 59.4892C62.2977 59.4892 62.4628 59.5246 62.6159 59.593C62.7689 59.6615 62.9064 59.7615 63.0197 59.8868C63.133 60.0122 63.2198 60.1602 63.2745 60.3215C63.3292 60.4828 63.3507 60.6539 63.3376 60.8241V66.3022C63.3376 66.6305 63.4651 66.9453 63.6922 67.1774C63.9192 67.4095 64.2271 67.5399 64.5482 67.5399C64.8692 67.5399 65.1771 67.4095 65.4042 67.1774C65.6312 66.9453 65.7587 66.6305 65.7587 66.3022V55.178C65.7587 54.8497 65.8862 54.535 66.1132 54.3028C66.3403 54.0707 66.6482 53.9403 66.9693 53.9403C67.2903 53.9403 67.5983 54.0707 67.8253 54.3028C68.0523 54.535 68.1799 54.8497 68.1799 55.178V69.5111C68.1667 69.6813 68.1883 69.8524 68.243 70.0137C68.2977 70.175 68.3843 70.323 68.4977 70.4484C68.6111 70.5737 68.7486 70.6738 68.9015 70.7422C69.0545 70.8106 69.2197 70.846 69.3867 70.846C69.5537 70.846 69.7188 70.8106 69.8719 70.7422C70.0248 70.6738 70.1623 70.5737 70.2757 70.4484C70.389 70.323 70.4758 70.175 70.5305 70.0137C70.5852 69.8524 70.6066 69.6813 70.5935 69.5111V49.1728C70.5915 48.8459 70.4632 48.533 70.2364 48.3025C70.0095 48.0721 69.7027 47.9428 69.3829 47.9428Z" fill="#1A1A1B"/>
<path d="M83.4943 44.5455H87.6278L91.608 52.0625H91.7784L95.7585 44.5455H99.892L93.5256 55.8295V62H89.8608V55.8295L83.4943 44.5455ZM103.041 62.2472C102.206 62.2472 101.462 62.1023 100.808 61.8125C100.155 61.517 99.6378 61.0824 99.2571 60.5085C98.8821 59.929 98.6946 59.2074 98.6946 58.3438C98.6946 57.6165 98.8281 57.0057 99.0952 56.5114C99.3622 56.017 99.7259 55.6193 100.186 55.3182C100.646 55.017 101.169 54.7898 101.754 54.6364C102.345 54.483 102.964 54.375 103.612 54.3125C104.374 54.233 104.987 54.1591 105.453 54.0909C105.919 54.017 106.257 53.9091 106.467 53.767C106.678 53.625 106.783 53.4148 106.783 53.1364V53.0852C106.783 52.5455 106.612 52.1278 106.271 51.8324C105.936 51.5369 105.459 51.3892 104.839 51.3892C104.186 51.3892 103.666 51.5341 103.28 51.8239C102.893 52.108 102.638 52.4659 102.513 52.8977L99.1548 52.625C99.3253 51.8295 99.6605 51.142 100.161 50.5625C100.661 49.9773 101.305 49.5284 102.095 49.2159C102.891 48.8977 103.811 48.7386 104.857 48.7386C105.584 48.7386 106.28 48.8239 106.945 48.9943C107.615 49.1648 108.209 49.429 108.726 49.7869C109.249 50.1449 109.661 50.6051 109.962 51.1676C110.263 51.7244 110.413 52.392 110.413 53.1705V62H106.97V60.1847H106.868C106.658 60.5938 106.376 60.9545 106.024 61.267C105.672 61.5739 105.249 61.8153 104.754 61.9915C104.26 62.1619 103.689 62.2472 103.041 62.2472ZM104.081 59.7415C104.615 59.7415 105.087 59.6364 105.496 59.4261C105.905 59.2102 106.226 58.9205 106.459 58.5568C106.692 58.1932 106.808 57.7812 106.808 57.321V55.9318C106.695 56.0057 106.538 56.0739 106.339 56.1364C106.146 56.1932 105.928 56.2472 105.683 56.2983C105.439 56.3437 105.195 56.3864 104.95 56.4261C104.706 56.4602 104.484 56.4915 104.286 56.5199C103.859 56.5824 103.487 56.6818 103.169 56.8182C102.851 56.9545 102.604 57.1392 102.428 57.3722C102.251 57.5994 102.163 57.8835 102.163 58.2244C102.163 58.7188 102.342 59.0966 102.7 59.358C103.064 59.6136 103.524 59.7415 104.081 59.7415ZM113.23 62V48.9091H116.75V51.1932H116.886C117.125 50.3807 117.526 49.767 118.088 49.3523C118.651 48.9318 119.298 48.7216 120.031 48.7216C120.213 48.7216 120.409 48.733 120.619 48.7557C120.83 48.7784 121.014 48.8097 121.173 48.8494V52.071C121.003 52.0199 120.767 51.9744 120.466 51.9347C120.165 51.8949 119.889 51.875 119.639 51.875C119.105 51.875 118.628 51.9915 118.207 52.2244C117.793 52.4517 117.463 52.7699 117.219 53.179C116.98 53.5881 116.861 54.0597 116.861 54.5938V62H113.23ZM126.681 54.4318V62H123.05V48.9091H126.511V51.2188H126.664C126.954 50.4574 127.44 49.8551 128.121 49.4119C128.803 48.9631 129.63 48.7386 130.602 48.7386C131.511 48.7386 132.303 48.9375 132.979 49.3352C133.656 49.733 134.181 50.3011 134.556 51.0398C134.931 51.7727 135.119 52.6477 135.119 53.6648V62H131.488V54.3125C131.494 53.5114 131.289 52.8864 130.874 52.4375C130.46 51.983 129.888 51.7557 129.161 51.7557C128.673 51.7557 128.241 51.8608 127.866 52.071C127.496 52.2812 127.207 52.5881 126.996 52.9915C126.792 53.3892 126.687 53.8693 126.681 54.4318ZM147.268 62.2472C146.433 62.2472 145.688 62.1023 145.035 61.8125C144.381 61.517 143.864 61.0824 143.484 60.5085C143.109 59.929 142.921 59.2074 142.921 58.3438C142.921 57.6165 143.055 57.0057 143.322 56.5114C143.589 56.017 143.952 55.6193 144.413 55.3182C144.873 55.017 145.396 54.7898 145.981 54.6364C146.572 54.483 147.191 54.375 147.839 54.3125C148.6 54.233 149.214 54.1591 149.68 54.0909C150.146 54.017 150.484 53.9091 150.694 53.767C150.904 53.625 151.009 53.4148 151.009 53.1364V53.0852C151.009 52.5455 150.839 52.1278 150.498 51.8324C150.163 51.5369 149.685 51.3892 149.066 51.3892C148.413 51.3892 147.893 51.5341 147.506 51.8239C147.12 52.108 146.864 52.4659 146.739 52.8977L143.381 52.625C143.552 51.8295 143.887 51.142 144.387 50.5625C144.887 49.9773 145.532 49.5284 146.322 49.2159C147.117 48.8977 148.038 48.7386 149.083 48.7386C149.81 48.7386 150.506 48.8239 151.171 48.9943C151.842 49.1648 152.435 49.429 152.952 49.7869C153.475 50.1449 153.887 50.6051 154.188 51.1676C154.489 51.7244 154.64 52.392 154.64 53.1705V62H151.197V60.1847H151.094C150.884 60.5938 150.603 60.9545 150.251 61.267C149.898 61.5739 149.475 61.8153 148.981 61.9915C148.487 62.1619 147.915 62.2472 147.268 62.2472ZM148.308 59.7415C148.842 59.7415 149.313 59.6364 149.722 59.4261C150.131 59.2102 150.452 58.9205 150.685 58.5568C150.918 58.1932 151.035 57.7812 151.035 57.321V55.9318C150.921 56.0057 150.765 56.0739 150.566 56.1364C150.373 56.1932 150.154 56.2472 149.91 56.2983C149.665 56.3437 149.421 56.3864 149.177 56.4261C148.933 56.4602 148.711 56.4915 148.512 56.5199C148.086 56.5824 147.714 56.6818 147.396 56.8182C147.077 56.9545 146.83 57.1392 146.654 57.3722C146.478 57.5994 146.39 57.8835 146.39 58.2244C146.39 58.7188 146.569 59.0966 146.927 59.358C147.29 59.6136 147.751 59.7415 148.308 59.7415ZM161.087 54.4318V62H157.457V48.9091H160.917V51.2188H161.07C161.36 50.4574 161.846 49.8551 162.528 49.4119C163.21 48.9631 164.036 48.7386 165.008 48.7386C165.917 48.7386 166.71 48.9375 167.386 49.3352C168.062 49.733 168.587 50.3011 168.962 51.0398C169.337 51.7727 169.525 52.6477 169.525 53.6648V62H165.894V54.3125C165.9 53.5114 165.695 52.8864 165.281 52.4375C164.866 51.983 164.295 51.7557 163.567 51.7557C163.079 51.7557 162.647 51.8608 162.272 52.071C161.903 52.2812 161.613 52.5881 161.403 52.9915C161.198 53.3892 161.093 53.8693 161.087 54.4318ZM177.21 62.2131C176.216 62.2131 175.315 61.9574 174.509 61.446C173.707 60.929 173.071 60.1705 172.599 59.1705C172.134 58.1648 171.901 56.9318 171.901 55.4716C171.901 53.9716 172.142 52.7244 172.625 51.7301C173.108 50.7301 173.75 49.983 174.551 49.4886C175.358 48.9886 176.241 48.7386 177.202 48.7386C177.935 48.7386 178.545 48.8636 179.034 49.1136C179.528 49.358 179.926 49.6648 180.227 50.0341C180.534 50.3977 180.767 50.7557 180.926 51.108H181.037V44.5455H184.659V62H181.08V59.9034H180.926C180.756 60.267 180.514 60.6278 180.202 60.9858C179.895 61.3381 179.494 61.6307 179 61.8636C178.511 62.0966 177.915 62.2131 177.21 62.2131ZM178.361 59.3239C178.946 59.3239 179.44 59.1648 179.844 58.8466C180.253 58.5227 180.565 58.071 180.781 57.4915C181.003 56.9119 181.114 56.233 181.114 55.4545C181.114 54.6761 181.006 54 180.79 53.4261C180.574 52.8523 180.261 52.4091 179.852 52.0966C179.443 51.7841 178.946 51.6278 178.361 51.6278C177.764 51.6278 177.261 51.7898 176.852 52.1136C176.443 52.4375 176.134 52.8864 175.923 53.4602C175.713 54.0341 175.608 54.6989 175.608 55.4545C175.608 56.2159 175.713 56.8892 175.923 57.4744C176.139 58.054 176.449 58.5085 176.852 58.8381C177.261 59.1619 177.764 59.3239 178.361 59.3239ZM200.162 48.9091V51.6364H192.278V48.9091H200.162ZM194.068 45.7727H197.699V57.9773C197.699 58.3125 197.75 58.5739 197.852 58.7614C197.955 58.9432 198.097 59.071 198.278 59.1449C198.466 59.2187 198.682 59.2557 198.926 59.2557C199.097 59.2557 199.267 59.2415 199.438 59.2131C199.608 59.179 199.739 59.1534 199.83 59.1364L200.401 61.8381C200.219 61.8949 199.963 61.9602 199.634 62.0341C199.304 62.1136 198.903 62.1619 198.432 62.179C197.557 62.2131 196.79 62.0966 196.131 61.8295C195.477 61.5625 194.969 61.1477 194.605 60.5852C194.241 60.0227 194.063 59.3125 194.068 58.4545V45.7727ZM206.439 54.4318V62H202.808V44.5455H206.337V51.2188H206.49C206.786 50.446 207.263 49.8409 207.922 49.4034C208.581 48.9602 209.408 48.7386 210.402 48.7386C211.311 48.7386 212.104 48.9375 212.78 49.3352C213.462 49.7273 213.99 50.2926 214.365 51.0312C214.746 51.7642 214.933 52.642 214.928 53.6648V62H211.297V54.3125C211.303 53.5057 211.098 52.8778 210.683 52.429C210.274 51.9801 209.7 51.7557 208.962 51.7557C208.467 51.7557 208.03 51.8608 207.649 52.071C207.274 52.2812 206.979 52.5881 206.763 52.9915C206.553 53.3892 206.445 53.8693 206.439 54.4318ZM217.785 62V48.9091H221.305V51.1932H221.441C221.68 50.3807 222.08 49.767 222.643 49.3523C223.205 48.9318 223.853 48.7216 224.586 48.7216C224.768 48.7216 224.964 48.733 225.174 48.7557C225.384 48.7784 225.569 48.8097 225.728 48.8494V52.071C225.558 52.0199 225.322 51.9744 225.021 51.9347C224.719 51.8949 224.444 51.875 224.194 51.875C223.66 51.875 223.183 51.9915 222.762 52.2244C222.347 52.4517 222.018 52.7699 221.773 53.179C221.535 53.5881 221.415 54.0597 221.415 54.5938V62H217.785ZM232.962 62.2557C231.615 62.2557 230.456 61.983 229.484 61.4375C228.518 60.8864 227.774 60.108 227.251 59.1023C226.729 58.0909 226.467 56.8949 226.467 55.5142C226.467 54.1676 226.729 52.9858 227.251 51.9688C227.774 50.9517 228.51 50.1591 229.459 49.5909C230.413 49.0227 231.533 48.7386 232.817 48.7386C233.68 48.7386 234.484 48.8778 235.229 49.1562C235.979 49.429 236.632 49.8409 237.189 50.392C237.751 50.9432 238.189 51.6364 238.501 52.4716C238.814 53.3011 238.97 54.2727 238.97 55.3864V56.3835H227.916V54.1335H235.553C235.553 53.6108 235.439 53.1477 235.212 52.7443C234.984 52.3409 234.669 52.0256 234.266 51.7983C233.868 51.5653 233.405 51.4489 232.876 51.4489C232.325 51.4489 231.837 51.5767 231.411 51.8324C230.99 52.0824 230.661 52.4205 230.422 52.8466C230.183 53.267 230.061 53.7358 230.055 54.2528V56.392C230.055 57.0398 230.175 57.5994 230.413 58.071C230.658 58.5426 231.001 58.9062 231.445 59.1619C231.888 59.4176 232.413 59.5455 233.021 59.5455C233.425 59.5455 233.794 59.4886 234.129 59.375C234.464 59.2614 234.751 59.0909 234.99 58.8636C235.229 58.6364 235.411 58.358 235.536 58.0284L238.893 58.25C238.723 59.0568 238.374 59.7614 237.845 60.3636C237.322 60.9602 236.646 61.4261 235.817 61.7614C234.993 62.0909 234.041 62.2557 232.962 62.2557ZM245.072 62.2472C244.237 62.2472 243.493 62.1023 242.839 61.8125C242.186 61.517 241.669 61.0824 241.288 60.5085C240.913 59.929 240.726 59.2074 240.726 58.3438C240.726 57.6165 240.859 57.0057 241.126 56.5114C241.393 56.017 241.757 55.6193 242.217 55.3182C242.678 55.017 243.2 54.7898 243.786 54.6364C244.376 54.483 244.996 54.375 245.643 54.3125C246.405 54.233 247.018 54.1591 247.484 54.0909C247.95 54.017 248.288 53.9091 248.499 53.767C248.709 53.625 248.814 53.4148 248.814 53.1364V53.0852C248.814 52.5455 248.643 52.1278 248.303 51.8324C247.967 51.5369 247.49 51.3892 246.871 51.3892C246.217 51.3892 245.697 51.5341 245.311 51.8239C244.925 52.108 244.669 52.4659 244.544 52.8977L241.186 52.625C241.357 51.8295 241.692 51.142 242.192 50.5625C242.692 49.9773 243.337 49.5284 244.126 49.2159C244.922 48.8977 245.842 48.7386 246.888 48.7386C247.615 48.7386 248.311 48.8239 248.976 48.9943C249.646 49.1648 250.24 49.429 250.757 49.7869C251.28 50.1449 251.692 50.6051 251.993 51.1676C252.294 51.7244 252.445 52.392 252.445 53.1705V62H249.001V60.1847H248.899C248.689 60.5938 248.408 60.9545 248.055 61.267C247.703 61.5739 247.28 61.8153 246.786 61.9915C246.291 62.1619 245.72 62.2472 245.072 62.2472ZM246.112 59.7415C246.646 59.7415 247.118 59.6364 247.527 59.4261C247.936 59.2102 248.257 58.9205 248.49 58.5568C248.723 58.1932 248.839 57.7812 248.839 57.321V55.9318C248.726 56.0057 248.57 56.0739 248.371 56.1364C248.178 56.1932 247.959 56.2472 247.714 56.2983C247.47 56.3437 247.226 56.3864 246.982 56.4261C246.737 56.4602 246.516 56.4915 246.317 56.5199C245.891 56.5824 245.518 56.6818 245.2 56.8182C244.882 56.9545 244.635 57.1392 244.459 57.3722C244.283 57.5994 244.195 57.8835 244.195 58.2244C244.195 58.7188 244.374 59.0966 244.732 59.358C245.095 59.6136 245.555 59.7415 246.112 59.7415ZM260.085 62.2131C259.091 62.2131 258.19 61.9574 257.384 61.446C256.582 60.929 255.946 60.1705 255.474 59.1705C255.009 58.1648 254.776 56.9318 254.776 55.4716C254.776 53.9716 255.017 52.7244 255.5 51.7301C255.983 50.7301 256.625 49.983 257.426 49.4886C258.233 48.9886 259.116 48.7386 260.077 48.7386C260.81 48.7386 261.42 48.8636 261.909 49.1136C262.403 49.358 262.801 49.6648 263.102 50.0341C263.409 50.3977 263.642 50.7557 263.801 51.108H263.912V44.5455H267.534V62H263.955V59.9034H263.801C263.631 60.267 263.389 60.6278 263.077 60.9858C262.77 61.3381 262.369 61.6307 261.875 61.8636C261.386 62.0966 260.79 62.2131 260.085 62.2131ZM261.236 59.3239C261.821 59.3239 262.315 59.1648 262.719 58.8466C263.128 58.5227 263.44 58.071 263.656 57.4915C263.878 56.9119 263.989 56.233 263.989 55.4545C263.989 54.6761 263.881 54 263.665 53.4261C263.449 52.8523 263.136 52.4091 262.727 52.0966C262.318 51.7841 261.821 51.6278 261.236 51.6278C260.639 51.6278 260.136 51.7898 259.727 52.1136C259.318 52.4375 259.009 52.8864 258.798 53.4602C258.588 54.0341 258.483 54.6989 258.483 55.4545C258.483 56.2159 258.588 56.8892 258.798 57.4744C259.014 58.054 259.324 58.5085 259.727 58.8381C260.136 59.1619 260.639 59.3239 261.236 59.3239ZM281.411 52.642L278.087 52.8466C278.031 52.5625 277.908 52.3068 277.721 52.0795C277.533 51.8466 277.286 51.6619 276.979 51.5256C276.678 51.3835 276.317 51.3125 275.897 51.3125C275.335 51.3125 274.86 51.4318 274.474 51.6705C274.087 51.9034 273.894 52.2159 273.894 52.608C273.894 52.9205 274.019 53.1847 274.269 53.4006C274.519 53.6165 274.948 53.7898 275.556 53.9205L277.925 54.3977C279.198 54.6591 280.147 55.0795 280.772 55.6591C281.397 56.2386 281.71 57 281.71 57.9432C281.71 58.8011 281.457 59.554 280.951 60.2017C280.451 60.8494 279.763 61.3551 278.888 61.7188C278.019 62.0767 277.016 62.2557 275.88 62.2557C274.147 62.2557 272.766 61.8949 271.738 61.1733C270.715 60.446 270.116 59.4574 269.94 58.2074L273.511 58.0199C273.619 58.5483 273.88 58.9517 274.295 59.2301C274.71 59.5028 275.241 59.6392 275.888 59.6392C276.525 59.6392 277.036 59.517 277.423 59.2727C277.815 59.0227 278.013 58.7017 278.019 58.3097C278.013 57.9801 277.874 57.7102 277.602 57.5C277.329 57.2841 276.908 57.1193 276.34 57.0057L274.073 56.554C272.795 56.2983 271.843 55.8551 271.218 55.2244C270.599 54.5937 270.289 53.7898 270.289 52.8125C270.289 51.9716 270.516 51.2472 270.971 50.6392C271.431 50.0312 272.076 49.5625 272.906 49.233C273.741 48.9034 274.718 48.7386 275.837 48.7386C277.491 48.7386 278.792 49.0881 279.741 49.7869C280.695 50.4858 281.252 51.4375 281.411 52.642Z" fill="black"/>
</svg>
