<svg width="162" height="105" viewBox="0 0 162 105" fill="none" xmlns="http://www.w3.org/2000/svg">
<g opacity="0.1">
<path opacity="0.1" d="M112.991 101.562V103.992H110.348" stroke="#111111" stroke-miterlimit="10"/>
<path opacity="0.1" d="M105.264 103.992H6.17969" stroke="#111111" stroke-miterlimit="10" stroke-dasharray="5.77 5.77"/>
<path opacity="0.1" d="M3.64296 103.992H1V101.562" stroke="#111111" stroke-miterlimit="10"/>
<path opacity="0.1" d="M1 96.8862V5.76367" stroke="#111111" stroke-miterlimit="10" stroke-dasharray="5.77 5.77"/>
<path opacity="0.1" d="M1 3.43058V1H3.64296" stroke="#111111" stroke-miterlimit="10"/>
<path opacity="0.1" d="M8.72656 1H107.811" stroke="#111111" stroke-miterlimit="10" stroke-dasharray="5.77 5.77"/>
<path opacity="0.1" d="M110.348 1H112.991V3.43058" stroke="#111111" stroke-miterlimit="10"/>
<path opacity="0.1" d="M112.992 8.09668V99.2273" stroke="#111111" stroke-miterlimit="10" stroke-dasharray="5.77 5.77"/>
</g>
<path d="M52.707 52.5209C52.707 53.3129 52.9625 54.087 53.4412 54.7454C53.9197 55.4038 54.6 55.9167 55.3957 56.2194C56.1915 56.5221 57.0669 56.6009 57.9115 56.4458C58.7559 56.2907 59.5313 55.9087 60.1397 55.3482C60.748 54.7876 61.1618 54.0737 61.3286 53.2968C61.4956 52.5199 61.4082 51.7149 61.0774 50.9837C60.7467 50.2525 60.1875 49.628 59.4706 49.1892C58.7538 48.7504 57.9115 48.517 57.0503 48.5186C55.8976 48.5207 54.7929 48.9433 53.9787 49.6937C53.1644 50.4441 52.707 51.4609 52.707 52.5209Z" fill="#414042"/>
<path d="M57.0474 65.0303C56.1866 65.0303 55.3452 65.265 54.6295 65.7048C53.9138 66.1446 53.356 66.7697 53.0266 67.501C52.6972 68.2323 52.611 69.0371 52.779 69.8135C52.9469 70.5898 53.3614 71.303 53.97 71.8627C54.5787 72.4225 55.3541 72.8037 56.1984 72.9581C57.0426 73.1125 57.9176 73.0333 58.7129 72.7304C59.5081 72.4274 60.1878 71.9144 60.666 71.2562C61.1442 70.598 61.3994 69.8242 61.3994 69.0326C61.3994 67.9711 60.941 66.9531 60.1247 66.2025C59.3086 65.452 58.2016 65.0303 57.0474 65.0303Z" fill="#414042"/>
<path d="M70.4029 48.5186C69.5421 48.5186 68.7006 48.7533 67.985 49.1931C67.2693 49.6329 66.7115 50.258 66.3821 50.9893C66.0527 51.7206 65.9665 52.5254 66.1344 53.3018C66.3023 54.0781 66.7168 54.7913 67.3255 55.351C67.9341 55.9108 68.7096 56.292 69.5538 56.4464C70.398 56.6008 71.2731 56.5216 72.0683 56.2186C72.8636 55.9157 73.5432 55.4027 74.0214 54.7445C74.4996 54.0864 74.755 53.3126 74.755 52.5209C74.755 51.4595 74.2964 50.4414 73.4803 49.6908C72.664 48.9403 71.5571 48.5186 70.4029 48.5186Z" fill="#414042"/>
<path d="M57.0503 39.7918C57.9115 39.7934 58.7538 39.56 59.4706 39.1212C60.1875 38.6824 60.7467 38.0579 61.0774 37.3267C61.4082 36.5955 61.4956 35.7905 61.3286 35.0136C61.1618 34.2367 60.748 33.5228 60.1397 32.9622C59.5313 32.4017 58.7559 32.0197 57.9115 31.8646C57.0669 31.7095 56.1915 31.7883 55.3957 32.091C54.6 32.3937 53.9197 32.9066 53.4412 33.565C52.9625 34.2234 52.707 34.9975 52.707 35.7895C52.707 36.8495 53.1644 37.8663 53.9787 38.6167C54.7929 39.367 55.8976 39.7896 57.0503 39.7918Z" fill="#414042"/>
<path d="M47.958 52.058C47.958 51.2664 47.7028 50.4926 47.2246 49.8344C46.7464 49.1763 46.0667 48.6632 45.2714 48.3603C44.4762 48.0574 43.6012 47.9781 42.7569 48.1326C41.9127 48.287 41.1372 48.6682 40.5285 49.228C39.92 49.7876 39.5054 50.5008 39.3375 51.2772C39.1696 52.0536 39.2558 52.8584 39.5852 53.5896C39.9146 54.321 40.4724 54.9461 41.188 55.3858C41.9038 55.8256 42.7452 56.0604 43.6059 56.0604C44.7602 56.0604 45.8671 55.6387 46.6834 54.8881C47.4995 54.1375 47.958 53.1195 47.958 52.058Z" fill="#414042"/>
<path d="M66.9511 57.9729C65.3943 56.5324 64.5204 54.5838 64.5204 52.5527C64.5204 50.5216 65.3943 48.573 66.9511 47.1325C67.5581 46.5721 67.9709 45.859 68.1375 45.0831C68.304 44.3071 68.2168 43.5032 67.8868 42.7727C67.557 42.0423 66.9992 41.4181 66.2838 40.9791C65.5685 40.54 64.7278 40.3057 63.8677 40.3057C63.0077 40.3057 62.1669 40.54 61.4517 40.9791C60.7363 41.4181 60.1785 42.0423 59.8486 42.7727C59.5187 43.5032 59.4315 44.3071 59.598 45.0831C59.7646 45.859 60.1773 46.5721 60.7842 47.1325C61.5663 47.8451 62.1871 48.6932 62.6108 49.6277C63.0344 50.5622 63.2525 51.5646 63.2525 52.577C63.2525 53.5894 63.0344 54.5919 62.6108 55.5264C62.1871 56.4609 61.5663 57.3089 60.7842 58.0215C60.1773 58.5819 59.7646 59.2951 59.598 60.071C59.4315 60.847 59.5187 61.6509 59.8486 62.3813C60.1785 63.1117 60.7363 63.7359 61.4517 64.175C62.1669 64.6141 63.0077 64.8484 63.8677 64.8484C64.7278 64.8484 65.5685 64.6141 66.2838 64.175C66.9992 63.7359 67.557 63.1117 67.8868 62.3813C68.2168 61.6509 68.304 60.847 68.1375 60.071C67.9709 59.2951 67.5581 58.5819 66.9511 58.0215V57.9729Z" fill="#414042"/>
<path d="M54.4248 60.3058C54.4201 59.255 53.9715 58.2468 53.1738 57.4944C51.6169 56.0539 50.7431 54.1053 50.7431 52.0742C50.7431 50.0431 51.6169 48.0946 53.1738 46.654C53.7808 46.0937 54.1935 45.3805 54.36 44.6045C54.5266 43.8286 54.4394 43.0247 54.1095 42.2943C53.7797 41.5638 53.2218 40.9397 52.5064 40.5006C51.7912 40.0615 50.9504 39.8271 50.0903 39.8271C49.2303 39.8271 48.3896 40.0615 47.6742 40.5006C46.959 40.9397 46.4011 41.5638 46.0712 42.2943C45.7413 43.0247 45.6541 43.8286 45.8206 44.6045C45.9872 45.3805 46.4 46.0937 47.0069 46.654C47.7876 47.3665 48.4073 48.214 48.8302 49.1478C49.253 50.0815 49.4707 51.083 49.4707 52.0945C49.4707 53.106 49.253 54.1075 48.8302 55.0412C48.4073 55.975 47.7876 56.8225 47.0069 57.5349C46.5059 58.0029 46.1377 58.5771 45.935 59.2068C45.7323 59.8365 45.7011 60.5024 45.8443 61.1459C45.9876 61.7892 46.3008 62.3903 46.7563 62.8961C47.2119 63.4019 47.7957 63.7968 48.4565 64.046C49.1172 64.2953 49.8344 64.3912 50.5449 64.3252C51.2554 64.2593 51.9374 64.0336 52.5307 63.6679C53.1239 63.3024 53.6102 62.8081 53.9467 62.2289C54.2832 61.6496 54.4595 61.003 54.46 60.3463L54.4248 60.3058Z" fill="#414042"/>
<path d="M89.517 61V43.5455H96.4034C97.7273 43.5455 98.8551 43.7983 99.7869 44.304C100.719 44.804 101.429 45.5 101.918 46.392C102.412 47.2784 102.659 48.3011 102.659 49.4602C102.659 50.6193 102.409 51.642 101.909 52.5284C101.409 53.4148 100.685 54.1051 99.7358 54.5994C98.7926 55.0937 97.6506 55.3409 96.3097 55.3409H91.9205V52.3835H95.7131C96.4233 52.3835 97.0085 52.2614 97.4688 52.017C97.9347 51.767 98.2813 51.4233 98.5085 50.9858C98.7415 50.5426 98.858 50.0341 98.858 49.4602C98.858 48.8807 98.7415 48.375 98.5085 47.9432C98.2813 47.5057 97.9347 47.1676 97.4688 46.929C97.0028 46.6847 96.4119 46.5625 95.696 46.5625H93.2074V61H89.517ZM108.369 61.2472C107.534 61.2472 106.79 61.1023 106.136 60.8125C105.483 60.517 104.966 60.0824 104.585 59.5085C104.21 58.929 104.023 58.2074 104.023 57.3438C104.023 56.6165 104.156 56.0057 104.423 55.5114C104.69 55.017 105.054 54.6193 105.514 54.3182C105.974 54.017 106.497 53.7898 107.082 53.6364C107.673 53.483 108.293 53.375 108.94 53.3125C109.702 53.233 110.315 53.1591 110.781 53.0909C111.247 53.017 111.585 52.9091 111.795 52.767C112.006 52.625 112.111 52.4148 112.111 52.1364V52.0852C112.111 51.5455 111.94 51.1278 111.599 50.8324C111.264 50.5369 110.787 50.3892 110.168 50.3892C109.514 50.3892 108.994 50.5341 108.608 50.8239C108.222 51.108 107.966 51.4659 107.841 51.8977L104.483 51.625C104.653 50.8295 104.989 50.142 105.489 49.5625C105.989 48.9773 106.634 48.5284 107.423 48.2159C108.219 47.8977 109.139 47.7386 110.185 47.7386C110.912 47.7386 111.608 47.8239 112.273 47.9943C112.943 48.1648 113.537 48.429 114.054 48.7869C114.577 49.1449 114.989 49.6051 115.29 50.1676C115.591 50.7244 115.741 51.392 115.741 52.1705V61H112.298V59.1847H112.196C111.986 59.5938 111.705 59.9545 111.352 60.267C111 60.5739 110.577 60.8153 110.082 60.9915C109.588 61.1619 109.017 61.2472 108.369 61.2472ZM109.409 58.7415C109.943 58.7415 110.415 58.6364 110.824 58.4261C111.233 58.2102 111.554 57.9205 111.787 57.5568C112.02 57.1932 112.136 56.7812 112.136 56.321V54.9318C112.023 55.0057 111.866 55.0739 111.668 55.1364C111.474 55.1932 111.256 55.2472 111.011 55.2983C110.767 55.3437 110.523 55.3864 110.278 55.4261C110.034 55.4602 109.812 55.4915 109.614 55.5199C109.188 55.5824 108.815 55.6818 108.497 55.8182C108.179 55.9545 107.932 56.1392 107.756 56.3722C107.58 56.5994 107.491 56.8835 107.491 57.2244C107.491 57.7188 107.67 58.0966 108.028 58.358C108.392 58.6136 108.852 58.7415 109.409 58.7415ZM118.558 61V47.9091H122.189V61H118.558ZM120.382 46.2216C119.842 46.2216 119.379 46.0426 118.993 45.6847C118.612 45.321 118.422 44.8864 118.422 44.3807C118.422 43.8807 118.612 43.4517 118.993 43.0938C119.379 42.7301 119.842 42.5483 120.382 42.5483C120.922 42.5483 121.382 42.7301 121.763 43.0938C122.149 43.4517 122.342 43.8807 122.342 44.3807C122.342 44.8864 122.149 45.321 121.763 45.6847C121.382 46.0426 120.922 46.2216 120.382 46.2216ZM128.728 53.4318V61H125.097V47.9091H128.558V50.2188H128.711C129.001 49.4574 129.487 48.8551 130.168 48.4119C130.85 47.9631 131.677 47.7386 132.648 47.7386C133.558 47.7386 134.35 47.9375 135.026 48.3352C135.702 48.733 136.228 49.3011 136.603 50.0398C136.978 50.7727 137.165 51.6477 137.165 52.6648V61H133.535V53.3125C133.54 52.5114 133.336 51.8864 132.921 51.4375C132.506 50.983 131.935 50.7557 131.208 50.7557C130.719 50.7557 130.288 50.8608 129.913 51.071C129.543 51.2812 129.254 51.5881 129.043 51.9915C128.839 52.3892 128.734 52.8693 128.728 53.4318ZM146.99 47.9091V50.6364H139.107V47.9091H146.99ZM140.896 44.7727H144.527V56.9773C144.527 57.3125 144.578 57.5739 144.68 57.7614C144.783 57.9432 144.925 58.071 145.107 58.1449C145.294 58.2187 145.51 58.2557 145.754 58.2557C145.925 58.2557 146.095 58.2415 146.266 58.2131C146.436 58.179 146.567 58.1534 146.658 58.1364L147.229 60.8381C147.047 60.8949 146.791 60.9602 146.462 61.0341C146.132 61.1136 145.732 61.1619 145.26 61.179C144.385 61.2131 143.618 61.0966 142.959 60.8295C142.305 60.5625 141.797 60.1477 141.433 59.5852C141.07 59.0227 140.891 58.3125 140.896 57.4545V44.7727ZM160.083 51.642L156.759 51.8466C156.702 51.5625 156.58 51.3068 156.393 51.0795C156.205 50.8466 155.958 50.6619 155.651 50.5256C155.35 50.3835 154.989 50.3125 154.569 50.3125C154.006 50.3125 153.532 50.4318 153.146 50.6705C152.759 50.9034 152.566 51.2159 152.566 51.608C152.566 51.9205 152.691 52.1847 152.941 52.4006C153.191 52.6165 153.62 52.7898 154.228 52.9205L156.597 53.3977C157.87 53.6591 158.819 54.0795 159.444 54.6591C160.069 55.2386 160.381 56 160.381 56.9432C160.381 57.8011 160.129 58.554 159.623 59.2017C159.123 59.8494 158.435 60.3551 157.56 60.7188C156.691 61.0767 155.688 61.2557 154.552 61.2557C152.819 61.2557 151.438 60.8949 150.41 60.1733C149.387 59.446 148.788 58.4574 148.612 57.2074L152.183 57.0199C152.29 57.5483 152.552 57.9517 152.967 58.2301C153.381 58.5028 153.913 58.6392 154.56 58.6392C155.197 58.6392 155.708 58.517 156.094 58.2727C156.487 58.0227 156.685 57.7017 156.691 57.3097C156.685 56.9801 156.546 56.7102 156.273 56.5C156.001 56.2841 155.58 56.1193 155.012 56.0057L152.745 55.554C151.467 55.2983 150.515 54.8551 149.89 54.2244C149.271 53.5937 148.961 52.7898 148.961 51.8125C148.961 50.9716 149.188 50.2472 149.643 49.6392C150.103 49.0312 150.748 48.5625 151.577 48.233C152.413 47.9034 153.39 47.7386 154.509 47.7386C156.163 47.7386 157.464 48.0881 158.413 48.7869C159.367 49.4858 159.924 50.4375 160.083 51.642Z" fill="black"/>
</svg>
